<?xml version="1.0" encoding="utf-8"?>
<!-- Generator: Adobe Illustrator 16.0.0, SVG Export Plug-In . SVG Version: 6.00 Build 0)  -->
<!DOCTYPE svg PUBLIC "-//W3C//DTD SVG 1.1//EN" "http://www.w3.org/Graphics/SVG/1.1/DTD/svg11.dtd">
<svg version="1.1" id="Layer_1" xmlns="http://www.w3.org/2000/svg" xmlns:xlink="http://www.w3.org/1999/xlink" x="0px" y="0px"
	 width="710px" height="490px" viewBox="0 0 710 490" enable-background="new 0 0 710 490" xml:space="preserve">
<g>
	
		<radialGradient id="SVGID_1_" cx="527.0127" cy="464.7852" r="408.5469" gradientTransform="matrix(0.9733 -0.0355 0.0357 0.9782 7.4413 30.3029)" gradientUnits="userSpaceOnUse">
		<stop  offset="0" style="stop-color:#42E8E0"/>
		<stop  offset="1" style="stop-color:#180D5B"/>
	</radialGradient>
	<path fill="url(#SVGID_1_)" d="M5.281,187.281c3.984-53.92,54.413-79.611,79.265-91.258
		c60.691-28.44,182.786-43.701,368.776,34.176c135.979,56.937,169.866,132.833,172.951,189.387
		c2.421,44.407,0.129,92.828-68.273,137.869c-62.099,40.889-180.428,48.899-266.826-53.294
		C180.753,273.555-3.166,301.6,5.281,187.281z"/>
	<g>
		<g>
			<g>
				<g>
					<path fill="#42E8E0" d="M123.628,256.321c-2.682,0-5.317-0.706-7.627-2.036l-87.819-50.703
						c-1.381-0.801-2.207-2.229-2.207-3.824s0.825-3.023,2.206-3.822l158.899-91.741c0.273-0.155,0.608-0.155,0.881,0l95.007,54.851
						c1.38,0.8,2.205,2.229,2.205,3.825c0,1.594-0.825,3.022-2.205,3.822l-151.713,87.592
						C128.943,255.615,126.308,256.321,123.628,256.321z M187.521,105.979L29.064,197.464c-0.83,0.479-1.324,1.337-1.324,2.294
						s0.494,1.815,1.325,2.296l87.817,50.703c4.084,2.357,9.404,2.355,13.492,0l151.713-87.596c0.829-0.476,1.323-1.333,1.323-2.291
						c0-0.959-0.495-1.817-1.325-2.297L187.521,105.979z"/>
				</g>
				<g>
					<g>
						<g>
							<g>
								<g>
									
										<linearGradient id="SVGID_2_" gradientUnits="userSpaceOnUse" x1="2762.4863" y1="162.9302" x2="3038.085" y2="162.9302" gradientTransform="matrix(1 0 0 1 -2743.7285 0)">
										<stop  offset="0" style="stop-color:#5761D7"/>
										<stop  offset="0.1779" style="stop-color:#5C66D9"/>
										<stop  offset="0.3876" style="stop-color:#6A73DF"/>
										<stop  offset="0.6134" style="stop-color:#8289E8"/>
										<stop  offset="0.849" style="stop-color:#A3A7F5"/>
										<stop  offset="1" style="stop-color:#BCBEFF"/>
									</linearGradient>
									<path fill="url(#SVGID_2_)" d="M294.356,134.417l-9.219,4.815l-92.437-53.369c-1.547-0.893-4.249-0.781-6.035,0.25
										L27.239,178.16c-1.526-0.853-8.482-4.198-8.482-4.198l3.374,8.792c0,0,0.012-0.009,0.014-0.011
										c0.139,0.39,0.439,0.756,0.944,1.047l97.354,56.208c1.545,0.892,4.247,0.781,6.033-0.25l163.146-94.193
										c0.733-0.423,1.182-0.935,1.369-1.456l0.012,0.009L294.356,134.417z"/>
									
										<linearGradient id="SVGID_3_" gradientUnits="userSpaceOnUse" x1="2855.0879" y1="153.7407" x2="3130.834" y2="153.7407" gradientTransform="matrix(1 0 0 1 -2743.7285 0)">
										<stop  offset="0" style="stop-color:#C0BFF6"/>
										<stop  offset="0.2938" style="stop-color:#C5C4F7"/>
										<stop  offset="0.6399" style="stop-color:#D3D2F9"/>
										<stop  offset="1" style="stop-color:#E9E9FD"/>
									</linearGradient>
									<path fill="url(#SVGID_3_)" d="M292.931,135.933l-167.201,96.534c-1.832,1.057-4.601,1.172-6.184,0.256l-99.777-57.606
										c-1.584-0.915-1.385-2.513,0.445-3.57l167.202-96.534c1.829-1.057,4.598-1.172,6.184-0.256l99.776,57.606
										C294.96,133.278,294.762,134.876,292.931,135.933z"/>
									<path fill="#FFFFFF" d="M292.931,134.97l-167.201,96.535c-1.832,1.056-4.601,1.172-6.184,0.256l-99.777-57.606
										c-0.519-0.3-0.826-0.675-0.968-1.079c-0.251,0.751,0.049,1.512,0.968,2.042l99.777,57.606
										c1.583,0.916,4.352,0.801,6.184-0.256l167.201-96.534c1.231-0.711,1.706-1.664,1.414-2.491
										C294.162,133.986,293.701,134.525,292.931,134.97z"/>
									<path fill="#2842A2" d="M75.296,211.585v-1.833c0-0.173,0.105-0.254,0.236-0.178l6.466,3.734
										c0.13,0.076,0.236,0.276,0.236,0.451v1.834c0,0.175-0.106,0.254-0.236,0.179l-6.466-3.733
										C75.401,211.963,75.296,211.76,75.296,211.585z"/>
									<path fill="#2842A2" d="M84.968,217.168v-1.833c0-0.175,0.105-0.254,0.235-0.179l6.467,3.734
										c0.13,0.076,0.237,0.278,0.237,0.451v1.833c0,0.175-0.106,0.255-0.237,0.179l-6.467-3.734
										C85.073,217.544,84.968,217.344,84.968,217.168z"/>
									<g>
										<path fill="#ADB1F2" d="M76.022,188.214l138.946-80.221c0.925-0.534,2.067-0.534,2.993,0.002l49.478,28.626
											c0.709,0.412,0.709,1.437-0.002,1.847l-138.879,80.184c-0.926,0.532-2.066,0.532-2.991,0l-49.545-28.591
											C75.311,189.652,75.311,188.625,76.022,188.214z"/>
										<path fill="#9198DB" d="M76.022,190.061l0.498,0.288l138.449-79.933c0.925-0.536,2.067-0.534,2.993,0.001l48.979,28.338
											l0.497-0.288c0.711-0.41,0.711-1.436,0.002-1.847l-49.478-28.626c-0.926-0.536-2.068-0.536-2.993-0.002L76.022,188.214
											C75.311,188.625,75.311,189.652,76.022,190.061z"/>
										<g>
											<polygon fill="#24126A" points="221.694,115.246 93.708,189.137 87.364,186.604 216.329,112.146 											"/>
											<polygon fill="#24126A" points="234.852,122.841 121.646,188.2 116.278,185.102 229.484,119.742 											"/>
											<polygon fill="#24126A" points="243.42,127.789 110.133,204.742 104.767,201.644 238.054,124.69 											"/>
											<polygon fill="#24126A" points="251.99,132.736 118.702,209.69 113.335,206.591 246.623,129.637 											"/>
											<polygon fill="#24126A" points="260.559,137.683 127.271,214.636 121.904,211.537 255.192,134.584 											"/>
											<polygon fill="#24126A" points="93.708,189.137 88.343,192.236 82.975,189.137 88.343,186.04 											"/>
											<polygon fill="#24126A" points="128.155,184.442 101.499,199.832 96.133,196.733 122.982,181.232 											"/>
										</g>
									</g>
									<g>
										
											<linearGradient id="SVGID_4_" gradientUnits="userSpaceOnUse" x1="2837.1973" y1="132.5225" x2="2907.7803" y2="132.5225" gradientTransform="matrix(1 0 0 1 -2743.7285 0)">
											<stop  offset="0" style="stop-color:#C0BFF6"/>
											<stop  offset="0.2938" style="stop-color:#C5C4F7"/>
											<stop  offset="0.6399" style="stop-color:#D3D2F9"/>
											<stop  offset="1" style="stop-color:#E9E9FD"/>
										</linearGradient>
										<path fill="url(#SVGID_4_)" d="M125.489,152.264l37.464-21.63c1.464-0.845,1.464-2.215,0-3.061l-25.62-14.792
											c-1.464-0.844-3.837-0.844-5.301,0l-37.465,21.631c-1.464,0.844-1.464,2.216,0,3.061l25.619,14.791
											C121.649,153.109,124.025,153.109,125.489,152.264z"/>
										<path fill="#9198DB" d="M94.567,135.664l37.465-21.63c1.464-0.846,3.837-0.846,5.301,0l25.62,14.792
											c0.451,0.261,0.747,0.574,0.919,0.905c0.388-0.74,0.094-1.574-0.919-2.157l-25.62-14.792
											c-1.464-0.844-3.837-0.844-5.301,0l-37.465,21.631c-1.012,0.583-1.308,1.417-0.921,2.157
											C93.819,136.238,94.115,135.925,94.567,135.664z"/>
									</g>
								</g>
							</g>
						</g>
					</g>
				</g>
				<g>
					
						<linearGradient id="SVGID_5_" gradientUnits="userSpaceOnUse" x1="2842.7168" y1="119.8032" x2="3037.8535" y2="119.8032" gradientTransform="matrix(1 0 0 1 -2743.7285 0)">
						<stop  offset="0" style="stop-color:#C0BFF6"/>
						<stop  offset="0.2938" style="stop-color:#C5C4F7"/>
						<stop  offset="0.6399" style="stop-color:#D3D2F9"/>
						<stop  offset="1" style="stop-color:#E9E9FD"/>
					</linearGradient>
					<path fill="url(#SVGID_5_)" d="M294.09,131.938L272.953,6.541l1.701-0.716L272.1,4.361l0.004,0.016
						c-0.495-0.331-1.196-0.31-1.967,0.135l-168.921,97.526c-1.387,0.801-2.437,2.855-2.192,4.291l21.303,126.395
						c0.111,0.66,0.437,1.095,0.89,1.287h-0.002l2.499,1.444l0.429-2.334L124,233.165l167.898-96.936
						C293.284,135.429,294.334,133.375,294.09,131.938z"/>
					
						<linearGradient id="SVGID_6_" gradientUnits="userSpaceOnUse" x1="2842.7178" y1="169.8467" x2="2876.2236" y2="169.8467" gradientTransform="matrix(1 0 0 1 -2743.7285 0)">
						<stop  offset="0" style="stop-color:#5761D7"/>
						<stop  offset="0.1779" style="stop-color:#5C66D9"/>
						<stop  offset="0.3876" style="stop-color:#6A73DF"/>
						<stop  offset="0.6134" style="stop-color:#8289E8"/>
						<stop  offset="0.849" style="stop-color:#A3A7F5"/>
						<stop  offset="1" style="stop-color:#BCBEFF"/>
					</linearGradient>
					<path fill="url(#SVGID_6_)" d="M102.157,105.468l-2.776-1.229c-0.312,0.711-0.465,1.46-0.357,2.09l21.303,126.395
						c0.111,0.66,0.437,1.095,0.89,1.287h-0.002l2.499,1.444l0.429-2.334L124,233.165l8.496-4.904L102.157,105.468z"/>
					<path fill="#453C9E" d="M294.547,137.75l-168.92,97.526c-1.303,0.752-2.419,0.317-2.65-1.033L101.673,107.85
						c-0.244-1.436,0.807-3.49,2.193-4.291L272.787,6.033c1.303-0.754,2.422-0.319,2.65,1.032l21.303,126.394
						C296.984,134.895,295.934,136.949,294.547,137.75z"/>
				</g>
			</g>
			<g>
				<g>
					<path fill="#42E8E0" d="M600.071,256.321c-2.682,0-5.317-0.706-7.627-2.036l0,0L440.73,166.693
						c-1.381-0.797-2.205-2.226-2.205-3.822s0.824-3.026,2.205-3.823l95.005-54.853c0.273-0.155,0.607-0.155,0.882,0l158.9,91.739
						c1.382,0.801,2.206,2.231,2.206,3.824c0,1.593-0.824,3.023-2.204,3.822l-87.823,50.705
						C605.387,255.615,602.751,256.321,600.071,256.321z M593.326,252.758c4.081,2.357,9.402,2.359,13.489,0l87.819-50.705
						c0.829-0.479,1.325-1.337,1.325-2.294s-0.496-1.815-1.327-2.296l-158.456-91.483l-94.564,54.597
						c-0.828,0.479-1.323,1.336-1.323,2.295c0,0.958,0.495,1.815,1.323,2.291L593.326,252.758z"/>
				</g>
				<g>
					<g>
						<g>
							<g>
								<g>
									
										<linearGradient id="SVGID_7_" gradientUnits="userSpaceOnUse" x1="156.4619" y1="162.9302" x2="432.0615" y2="162.9302" gradientTransform="matrix(-1 0 0 1 861.4043 0)">
										<stop  offset="0" style="stop-color:#5761D7"/>
										<stop  offset="0.1779" style="stop-color:#5C66D9"/>
										<stop  offset="0.3876" style="stop-color:#6A73DF"/>
										<stop  offset="0.6134" style="stop-color:#8289E8"/>
										<stop  offset="0.849" style="stop-color:#A3A7F5"/>
										<stop  offset="1" style="stop-color:#BCBEFF"/>
									</linearGradient>
									<path fill="url(#SVGID_7_)" d="M429.343,134.417l9.219,4.815l92.437-53.369c1.548-0.893,4.249-0.781,6.034,0.25
										l159.429,92.046c1.525-0.853,8.481-4.198,8.481-4.198l-3.375,8.792c0,0-0.012-0.009-0.014-0.011
										c-0.139,0.39-0.438,0.756-0.943,1.047l-97.355,56.208c-1.545,0.892-4.247,0.781-6.032-0.25l-163.146-94.193
										c-0.733-0.423-1.182-0.935-1.368-1.456l-0.013,0.009L429.343,134.417z"/>
									
										<linearGradient id="SVGID_8_" gradientUnits="userSpaceOnUse" x1="249.0645" y1="153.7407" x2="524.8105" y2="153.7407" gradientTransform="matrix(-1 0 0 1 861.4043 0)">
										<stop  offset="0" style="stop-color:#C0BFF6"/>
										<stop  offset="0.2938" style="stop-color:#C5C4F7"/>
										<stop  offset="0.6399" style="stop-color:#D3D2F9"/>
										<stop  offset="1" style="stop-color:#E9E9FD"/>
									</linearGradient>
									<path fill="url(#SVGID_8_)" d="M430.769,135.933l167.201,96.534c1.832,1.057,4.599,1.172,6.184,0.256l99.776-57.606
										c1.585-0.915,1.387-2.513-0.442-3.57L536.283,75.014c-1.829-1.057-4.598-1.172-6.184-0.256l-99.775,57.606
										C428.739,133.278,428.938,134.876,430.769,135.933z"/>
									<path fill="#FFFFFF" d="M430.769,134.97l167.201,96.535c1.832,1.056,4.599,1.172,6.184,0.256l99.776-57.606
										c0.518-0.3,0.828-0.675,0.97-1.079c0.25,0.751-0.051,1.512-0.97,2.042l-99.776,57.606
										c-1.585,0.916-4.352,0.801-6.184-0.256l-167.201-96.534c-1.23-0.711-1.706-1.664-1.414-2.491
										C429.538,133.986,430,134.525,430.769,134.97z"/>
									<path fill="#2842A2" d="M648.402,211.585v-1.833c0-0.173-0.104-0.254-0.235-0.178l-6.468,3.734
										c-0.129,0.076-0.234,0.276-0.234,0.451v1.834c0,0.175,0.105,0.254,0.234,0.179l6.468-3.733
										C648.298,211.963,648.402,211.76,648.402,211.585z"/>
									<path fill="#2842A2" d="M638.731,217.168v-1.833c0-0.175-0.105-0.254-0.236-0.179l-6.466,3.734
										c-0.131,0.076-0.235,0.278-0.235,0.451v1.833c0,0.175,0.104,0.255,0.235,0.179l6.466-3.734
										C638.626,217.544,638.731,217.344,638.731,217.168z"/>
									<g>
										<path fill="#ADB1F2" d="M647.676,188.214L508.73,107.993c-0.925-0.534-2.067-0.534-2.992,0.002l-49.479,28.626
											c-0.709,0.412-0.709,1.437,0.002,1.847l138.88,80.184c0.925,0.532,2.065,0.532,2.99,0l49.544-28.591
											C648.39,189.652,648.39,188.625,647.676,188.214z"/>
										<path fill="#9198DB" d="M647.676,190.061l-0.497,0.288L508.73,110.417c-0.925-0.536-2.067-0.534-2.992,0.001
											l-48.979,28.338l-0.497-0.288c-0.711-0.41-0.711-1.436-0.002-1.847l49.479-28.626c0.925-0.536,2.067-0.536,2.992-0.002
											l138.945,80.221C648.39,188.625,648.39,189.652,647.676,190.061z"/>
										<g>
											<polygon fill="#24126A" points="502.005,115.246 629.992,189.137 636.336,186.604 507.37,112.146 											"/>
											<polygon fill="#24126A" points="488.848,122.841 602.054,188.2 607.421,185.102 494.215,119.742 											"/>
											<polygon fill="#24126A" points="480.279,127.789 613.566,204.742 618.934,201.644 485.646,124.69 											"/>
											<polygon fill="#24126A" points="471.71,132.736 604.997,209.69 610.364,206.591 477.076,129.637 											"/>
											<polygon fill="#24126A" points="463.141,137.683 596.429,214.636 601.795,211.537 468.507,134.584 											"/>
											<polygon fill="#24126A" points="629.992,189.137 635.356,192.236 640.724,189.137 635.356,186.04 											"/>
											<polygon fill="#24126A" points="595.545,184.442 622.201,199.832 627.566,196.733 600.717,181.232 											"/>
										</g>
									</g>
									<g>
										
											<linearGradient id="SVGID_11_" gradientUnits="userSpaceOnUse" x1="231.1733" y1="132.5225" x2="301.7568" y2="132.5225" gradientTransform="matrix(-1 0 0 1 861.4043 0)">
											<stop  offset="0" style="stop-color:#C0BFF6"/>
											<stop  offset="0.2938" style="stop-color:#C5C4F7"/>
											<stop  offset="0.6399" style="stop-color:#D3D2F9"/>
											<stop  offset="1" style="stop-color:#E9E9FD"/>
										</linearGradient>
										<path fill="url(#SVGID_11_)" d="M598.21,152.264l-37.465-21.63c-1.464-0.845-1.464-2.215,0-3.061l25.62-14.792
											c1.464-0.844,3.838-0.844,5.302,0l37.464,21.631c1.467,0.844,1.467,2.216,0,3.061l-25.617,14.791
											C602.05,153.109,599.675,153.109,598.21,152.264z"/>
										<path fill="#9198DB" d="M629.131,135.664l-37.464-21.63c-1.464-0.846-3.838-0.846-5.302,0l-25.62,14.792
											c-0.45,0.261-0.747,0.574-0.919,0.905c-0.388-0.74-0.094-1.574,0.919-2.157l25.62-14.792c1.464-0.844,3.838-0.844,5.302,0
											l37.464,21.631c1.014,0.583,1.31,1.417,0.923,2.157C629.88,136.238,629.585,135.925,629.131,135.664z"/>
									</g>
								</g>
							</g>
						</g>
					</g>
				</g>
				<g>
					
						<linearGradient id="SVGID_12_" gradientUnits="userSpaceOnUse" x1="236.6929" y1="119.8032" x2="431.8311" y2="119.8032" gradientTransform="matrix(-1 0 0 1 861.4043 0)">
						<stop  offset="0" style="stop-color:#C0BFF6"/>
						<stop  offset="0.2938" style="stop-color:#C5C4F7"/>
						<stop  offset="0.6399" style="stop-color:#D3D2F9"/>
						<stop  offset="1" style="stop-color:#E9E9FD"/>
					</linearGradient>
					<path fill="url(#SVGID_12_)" d="M429.609,131.938L450.746,6.541l-1.701-0.716l2.555-1.464l-0.004,0.016
						c0.494-0.331,1.196-0.31,1.967,0.135l168.921,97.526c1.386,0.801,2.438,2.855,2.192,4.291l-21.303,126.395
						c-0.112,0.66-0.438,1.095-0.891,1.287h0.002l-2.498,1.444l-0.43-2.334l0.144,0.043l-167.898-96.936
						C430.416,135.429,429.364,133.375,429.609,131.938z"/>
					
						<linearGradient id="SVGID_13_" gradientUnits="userSpaceOnUse" x1="236.6943" y1="169.8467" x2="270.2002" y2="169.8467" gradientTransform="matrix(-1 0 0 1 861.4043 0)">
						<stop  offset="0" style="stop-color:#5761D7"/>
						<stop  offset="0.1779" style="stop-color:#5C66D9"/>
						<stop  offset="0.3876" style="stop-color:#6A73DF"/>
						<stop  offset="0.6134" style="stop-color:#8289E8"/>
						<stop  offset="0.849" style="stop-color:#A3A7F5"/>
						<stop  offset="1" style="stop-color:#BCBEFF"/>
					</linearGradient>
					<path fill="url(#SVGID_13_)" d="M621.542,105.468l2.776-1.229c0.312,0.711,0.465,1.46,0.357,2.09l-21.303,126.395
						c-0.112,0.66-0.438,1.095-0.891,1.287h0.002l-2.498,1.444l-0.43-2.334l0.144,0.043l-8.496-4.904L621.542,105.468z"/>
					<path fill="#453C9E" d="M429.151,137.75l168.922,97.526c1.303,0.752,2.419,0.317,2.649-1.033l21.304-126.393
						c0.244-1.436-0.806-3.49-2.193-4.291L450.912,6.033c-1.303-0.754-2.421-0.319-2.649,1.032l-21.304,126.394
						C426.715,134.895,427.766,136.949,429.151,137.75z"/>
				</g>
			</g>
			<g>
				<polygon fill="#BCBEFF" points="361.853,286.563 204.566,195.755 361.847,104.948 519.134,195.758 				"/>
				<polygon fill="#453C9E" points="361.851,261.768 247.513,195.755 361.849,129.743 476.187,195.757 				"/>
				<polygon fill="#FFFFFF" points="361.849,134.215 472.315,197.992 476.187,195.757 361.849,129.743 247.513,195.755 
					251.384,197.99 				"/>
				<linearGradient id="SVGID_14_" gradientUnits="userSpaceOnUse" x1="440.4932" y1="306.2568" x2="440.4932" y2="198.7759">
					<stop  offset="0" style="stop-color:#C0BFF6"/>
					<stop  offset="0.2938" style="stop-color:#C5C4F7"/>
					<stop  offset="0.6399" style="stop-color:#D3D2F9"/>
					<stop  offset="1" style="stop-color:#E9E9FD"/>
				</linearGradient>
				<polygon fill="url(#SVGID_14_)" points="519.134,195.758 519.134,247.231 361.853,338.037 361.853,286.563 				"/>
				<polygon fill="#24126A" points="204.566,195.755 204.566,247.228 361.853,338.037 361.853,286.563 				"/>
				<g opacity="0.51">
					<polygon fill="#453C9E" points="215.22,218.881 215.22,235.091 351.198,313.596 351.198,297.387 					"/>
				</g>
				<polygon fill="#FFFFFF" points="361.853,283.613 207.122,194.28 204.566,195.755 361.853,286.563 519.134,195.758 
					516.577,194.282 				"/>
				<polygon fill="#453C9E" points="495.542,231.826 495.542,241.041 385.444,304.604 385.444,295.391 				"/>
				<polygon opacity="0.51" fill="#453C9E" points="204.566,195.755 204.566,247.228 361.853,338.037 361.853,286.563 				"/>
				<polygon fill="#42E8E0" points="315.938,283.828 287.456,267.384 287.452,270.779 315.935,287.225 				"/>
				<polygon fill="#42E8E0" points="283.348,265.049 275.631,260.592 275.629,263.988 283.346,268.443 				"/>
				<polygon fill="#42E8E0" points="247.196,244.181 231.409,235.063 231.405,238.46 247.194,247.577 				"/>
				<polygon fill="#42E8E0" points="261.605,252.5 250.188,245.907 250.184,249.304 261.602,255.896 				"/>
				<polygon fill="#42E8E0" points="272.312,258.683 264.597,254.228 264.593,257.625 272.31,262.079 				"/>
				<g>
					<g>
						<polygon fill="#42E8E0" points="362.012,152.41 357.018,149.525 362.012,146.643 367.005,149.525 						"/>
						<polygon opacity="0.1" fill="#42E8E0" points="372.001,158.176 367.005,155.293 372.001,152.41 376.995,155.293 						"/>
						<polygon opacity="0.4" fill="#42E8E0" points="381.99,163.944 376.995,161.061 381.987,158.176 386.983,161.061 						"/>
						<polygon fill="#42E8E0" points="391.978,169.711 386.983,166.827 391.978,163.944 396.973,166.827 						"/>
						<polygon opacity="0.4" fill="#42E8E0" points="401.967,175.478 396.973,172.595 401.967,169.711 406.961,172.595 						"/>
						<polygon fill="#42E8E0" points="411.957,181.246 406.961,178.361 411.957,175.478 416.95,178.361 						"/>
						<polygon fill="#42E8E0" points="421.945,187.012 416.95,184.128 421.945,181.246 426.938,184.129 						"/>
						<polygon fill="#42E8E0" points="431.933,192.779 426.938,189.896 431.933,187.012 436.929,189.896 						"/>
						<polygon opacity="0.1" fill="#42E8E0" points="441.923,198.547 436.929,195.663 441.923,192.779 446.916,195.663 						"/>
					</g>
					<g>
						<polygon fill="#42E8E0" points="351.982,158.2 346.987,155.316 351.982,152.434 356.977,155.316 						"/>
						<polygon fill="#42E8E0" points="361.973,163.966 356.977,161.084 361.973,158.2 366.965,161.084 						"/>
						<polygon fill="#42E8E0" points="371.959,169.734 366.965,166.851 371.959,163.967 376.954,166.851 						"/>
						<polygon fill="#42E8E0" points="381.948,175.501 376.954,172.618 381.948,169.734 386.944,172.618 						"/>
						<polygon fill="#42E8E0" points="391.938,181.269 386.944,178.385 391.938,175.501 396.932,178.385 						"/>
						<polygon fill="#42E8E0" points="401.927,187.036 396.932,184.151 401.927,181.269 406.92,184.151 						"/>
						<polygon fill="#42E8E0" points="411.914,192.802 406.92,189.919 411.914,187.036 416.91,189.919 						"/>
						<polygon fill="#42E8E0" points="421.904,198.569 416.91,195.687 421.904,192.802 426.899,195.687 						"/>
						<polygon fill="#42E8E0" points="431.894,204.337 426.899,201.453 431.894,198.569 436.887,201.453 						"/>
					</g>
					<g>
						<polygon fill="#42E8E0" points="341.953,163.99 336.958,161.106 341.953,158.224 346.947,161.107 						"/>
						<polygon fill="#42E8E0" points="351.943,169.758 346.947,166.875 351.941,163.99 356.937,166.875 						"/>
						<polygon fill="#42E8E0" points="361.93,175.525 356.937,172.641 361.93,169.758 366.926,172.641 						"/>
						<polygon opacity="0.1" fill="#42E8E0" points="371.92,181.291 366.926,178.408 371.92,175.525 376.913,178.408 						"/>
						<polygon opacity="0.4" fill="#42E8E0" points="381.909,187.059 376.913,184.176 381.909,181.292 386.901,184.176 						"/>
						<polygon opacity="0.4" fill="#42E8E0" points="391.897,192.826 386.901,189.942 391.896,187.059 396.892,189.942 						"/>
						<polygon fill="#42E8E0" points="401.886,198.593 396.892,195.709 401.886,192.826 406.881,195.71 						"/>
						<polygon fill="#42E8E0" points="411.875,204.36 406.881,201.477 411.875,198.593 416.868,201.477 						"/>
						<polygon fill="#42E8E0" points="421.864,210.127 416.871,207.243 421.864,204.36 426.858,207.243 						"/>
					</g>
					<g>
						<polygon opacity="0.4" fill="#42E8E0" points="331.924,169.78 326.928,166.897 331.924,164.014 336.918,166.897 						"/>
						<polygon opacity="0.4" fill="#42E8E0" points="341.912,175.548 336.918,172.665 341.912,169.78 346.907,172.665 						"/>
						<polygon opacity="0.1" fill="#42E8E0" points="351.901,181.315 346.907,178.431 351.901,175.548 356.895,178.431 						"/>
						<polygon fill="#42E8E0" points="361.891,187.082 356.895,184.199 361.891,181.315 366.885,184.199 						"/>
						<polygon fill="#42E8E0" points="371.88,192.85 366.885,189.966 371.88,187.082 376.873,189.966 						"/>
						<polygon fill="#42E8E0" points="381.867,198.616 376.873,195.732 381.867,192.85 386.862,195.732 						"/>
						<polygon opacity="0.4" fill="#42E8E0" points="391.856,204.384 386.862,201.499 391.856,198.616 396.853,201.499 						"/>
						<polygon fill="#42E8E0" points="401.846,210.151 396.853,207.267 401.846,204.384 406.84,207.267 						"/>
						<polygon fill="#42E8E0" points="411.835,215.917 406.84,213.033 411.835,210.151 416.828,213.035 						"/>
					</g>
					<g>
						<polygon fill="#42E8E0" points="321.893,175.571 316.899,172.688 321.893,169.804 326.889,172.688 						"/>
						<polygon fill="#42E8E0" points="331.882,181.339 326.889,178.455 331.882,175.571 336.878,178.455 						"/>
						<polygon fill="#42E8E0" points="341.872,187.105 336.878,184.221 341.872,181.339 346.865,184.222 						"/>
						<polygon fill="#42E8E0" points="351.861,192.873 346.865,189.989 351.861,187.105 356.854,189.989 						"/>
						<polygon fill="#42E8E0" points="361.851,198.64 356.854,195.756 361.849,192.873 366.844,195.756 						"/>
						<polygon fill="#42E8E0" points="371.838,204.406 366.844,201.523 371.838,198.64 376.834,201.523 						"/>
						<polygon fill="#42E8E0" points="381.827,210.175 376.834,207.291 381.827,204.406 386.821,207.291 						"/>
						<polygon fill="#42E8E0" points="391.817,215.941 386.821,213.057 391.817,210.175 396.81,213.057 						"/>
						<polygon fill="#42E8E0" points="401.806,221.707 396.81,218.823 401.806,215.941 406.8,218.823 						"/>
					</g>
					<g>
						<polygon fill="#42E8E0" points="311.864,181.362 306.871,178.479 311.864,175.594 316.86,178.479 						"/>
						<polygon fill="#42E8E0" points="321.854,187.129 316.86,184.245 321.854,181.362 326.847,184.245 						"/>
						<polygon opacity="0.4" fill="#42E8E0" points="331.843,192.896 326.849,190.012 331.843,187.129 336.836,190.012 						"/>
						<polygon fill="#42E8E0" points="341.832,198.663 336.836,195.78 341.832,192.896 346.826,195.78 						"/>
						<polygon opacity="0.1" fill="#42E8E0" points="351.819,204.43 346.826,201.547 351.819,198.663 356.815,201.547 						"/>
						<polygon fill="#42E8E0" points="361.809,210.196 356.815,207.313 361.809,204.43 366.803,207.313 						"/>
						<polygon fill="#42E8E0" points="371.799,215.963 366.805,213.081 371.799,210.199 376.792,213.081 						"/>
						<polygon fill="#42E8E0" points="381.787,221.731 376.792,218.847 381.787,215.965 386.781,218.847 						"/>
						<polygon fill="#42E8E0" points="391.776,227.498 386.781,224.615 391.774,221.731 396.771,224.615 						"/>
					</g>
					<g>
						<polygon fill="#42E8E0" points="301.835,187.152 296.841,184.269 301.835,181.384 306.831,184.269 						"/>
						<polygon fill="#42E8E0" points="311.825,192.919 306.831,190.035 311.825,187.152 316.818,190.035 						"/>
						<polygon opacity="0.4" fill="#42E8E0" points="321.814,198.686 316.818,195.802 321.814,192.919 326.808,195.803 						"/>
						<polygon fill="#42E8E0" points="331.801,204.454 326.808,201.57 331.801,198.686 336.796,201.57 						"/>
						<polygon fill="#42E8E0" points="341.791,210.22 336.796,207.336 341.791,204.454 346.786,207.336 						"/>
						<polygon opacity="0.1" fill="#42E8E0" points="351.78,215.987 346.786,213.104 351.78,210.22 356.773,213.104 						"/>
						<polygon opacity="0.4" fill="#42E8E0" points="361.77,221.755 356.773,218.871 361.77,215.987 366.763,218.871 						"/>
						<polygon fill="#42E8E0" points="371.758,227.521 366.763,224.639 371.758,221.755 376.752,224.639 						"/>
						<polygon opacity="0.1" fill="#42E8E0" points="381.746,233.288 376.752,230.406 381.746,227.521 386.741,230.406 						"/>
					</g>
					<g>
						<polygon fill="#42E8E0" points="291.806,192.942 286.812,190.059 291.806,187.175 296.8,190.059 						"/>
						<polygon opacity="0.4" fill="#42E8E0" points="301.795,198.709 296.802,195.826 301.795,192.943 306.789,195.826 						"/>
						<polygon fill="#42E8E0" points="311.785,204.477 306.789,201.593 311.785,198.709 316.779,201.593 						"/>
						<polygon fill="#42E8E0" points="321.772,210.245 316.779,207.36 321.772,204.477 326.768,207.36 						"/>
						<polygon fill="#42E8E0" points="331.762,216.011 326.768,213.126 331.762,210.245 336.755,213.126 						"/>
						<polygon fill="#42E8E0" points="341.75,221.779 336.757,218.895 341.75,216.011 346.745,218.895 						"/>
						<polygon fill="#42E8E0" points="351.74,227.545 346.745,224.661 351.74,221.779 356.733,224.661 						"/>
						<polygon opacity="0.4" fill="#42E8E0" points="361.728,233.312 356.733,230.428 361.728,227.545 366.723,230.428 						"/>
						<polygon fill="#42E8E0" points="371.717,239.08 366.723,236.196 371.717,233.312 376.713,236.196 						"/>
					</g>
					<g>
						<polygon fill="#42E8E0" points="281.777,198.733 276.783,195.849 281.777,192.966 286.771,195.849 						"/>
						<polygon opacity="0.1" fill="#42E8E0" points="291.766,204.5 286.771,201.617 291.766,198.733 296.76,201.617 						"/>
						<polygon fill="#42E8E0" points="301.756,210.266 296.76,207.384 301.754,204.5 306.749,207.384 						"/>
						<polygon fill="#42E8E0" points="311.743,216.035 306.749,213.15 311.743,210.266 316.739,213.15 						"/>
						<polygon fill="#42E8E0" points="321.732,221.803 316.739,218.918 321.732,216.035 326.726,218.918 						"/>
						<polygon fill="#42E8E0" points="331.722,227.567 326.726,224.685 331.722,221.803 336.715,224.685 						"/>
						<polygon opacity="0.4" fill="#42E8E0" points="341.711,233.335 336.715,230.452 341.709,227.569 346.705,230.452 						"/>
						<polygon fill="#42E8E0" points="351.698,239.102 346.705,236.22 351.698,233.335 356.694,236.22 						"/>
						<polygon fill="#42E8E0" points="361.688,244.871 356.694,241.986 361.688,239.104 366.682,241.986 						"/>
					</g>
				</g>
			</g>
			<g>
				<polygon fill="#BCBEFF" points="361.853,197.441 204.566,106.632 361.847,15.826 519.134,106.634 				"/>
				<polygon fill="#453C9E" points="361.851,172.646 247.513,106.632 361.849,40.62 476.187,106.634 				"/>
				<polygon fill="#FFFFFF" points="361.849,45.091 472.315,108.869 476.187,106.634 361.849,40.62 247.513,106.632 
					251.384,108.867 				"/>
				<linearGradient id="SVGID_15_" gradientUnits="userSpaceOnUse" x1="440.4932" y1="217.1333" x2="440.4932" y2="109.652">
					<stop  offset="0" style="stop-color:#C0BFF6"/>
					<stop  offset="0.2938" style="stop-color:#C5C4F7"/>
					<stop  offset="0.6399" style="stop-color:#D3D2F9"/>
					<stop  offset="1" style="stop-color:#E9E9FD"/>
				</linearGradient>
				<polygon fill="url(#SVGID_15_)" points="519.134,106.634 519.134,158.107 361.853,248.914 361.853,197.441 				"/>
				<polygon fill="#24126A" points="204.566,106.632 204.566,158.104 361.853,248.914 361.853,197.441 				"/>
				<g opacity="0.51">
					<polygon fill="#453C9E" points="215.22,129.758 215.22,145.968 351.198,224.474 351.198,208.264 					"/>
				</g>
				<polygon fill="#FFFFFF" points="361.853,194.49 207.122,105.156 204.566,106.632 361.853,197.441 519.134,106.634 
					516.577,105.16 				"/>
				<polygon fill="#453C9E" points="495.542,142.705 495.542,151.917 385.444,215.482 385.444,206.27 				"/>
				<polygon opacity="0.51" fill="#453C9E" points="204.566,106.632 204.566,158.104 361.853,248.914 361.853,197.441 				"/>
				<polygon fill="#42E8E0" points="315.938,194.707 287.456,178.262 287.452,181.657 315.935,198.104 				"/>
				<polygon fill="#42E8E0" points="283.348,175.926 275.631,171.47 275.629,174.867 283.346,179.322 				"/>
				<polygon fill="#42E8E0" points="247.196,155.059 231.409,145.942 231.405,149.338 247.194,158.455 				"/>
				<polygon fill="#42E8E0" points="261.605,163.378 250.188,156.786 250.184,160.183 261.602,166.775 				"/>
				<polygon fill="#42E8E0" points="272.312,169.56 264.597,165.104 264.593,168.501 272.31,172.957 				"/>
				<g>
					<g>
						<polygon fill="#42E8E0" points="362.012,63.286 357.018,60.403 362.012,57.52 367.005,60.403 						"/>
						<polygon opacity="0.1" fill="#42E8E0" points="372.001,69.054 367.005,66.17 372.001,63.286 376.995,66.17 						"/>
						<polygon opacity="0.4" fill="#42E8E0" points="381.99,74.821 376.995,71.937 381.987,69.054 386.983,71.937 						"/>
						<polygon fill="#42E8E0" points="391.978,80.587 386.983,77.704 391.978,74.821 396.973,77.705 						"/>
						<polygon opacity="0.4" fill="#42E8E0" points="401.967,86.355 396.973,83.472 401.967,80.587 406.961,83.472 						"/>
						<polygon fill="#42E8E0" points="411.957,92.122 406.961,89.239 411.957,86.355 416.95,89.239 						"/>
						<polygon fill="#42E8E0" points="421.945,97.889 416.95,95.006 421.945,92.122 426.938,95.006 						"/>
						<polygon fill="#42E8E0" points="431.933,103.657 426.938,100.772 431.933,97.89 436.929,100.772 						"/>
						<polygon opacity="0.1" fill="#42E8E0" points="441.923,109.423 436.929,106.54 441.923,103.657 446.916,106.54 						"/>
					</g>
					<g>
						<polygon fill="#42E8E0" points="351.982,69.077 346.987,66.194 351.982,63.31 356.977,66.194 						"/>
						<polygon fill="#42E8E0" points="361.973,74.845 356.977,71.961 361.973,69.078 366.965,71.961 						"/>
						<polygon fill="#42E8E0" points="371.959,80.611 366.965,77.727 371.959,74.845 376.954,77.728 						"/>
						<polygon fill="#42E8E0" points="381.948,86.379 376.954,83.496 381.948,80.611 386.944,83.496 						"/>
						<polygon fill="#42E8E0" points="391.938,92.146 386.944,89.262 391.938,86.379 396.932,89.262 						"/>
						<polygon fill="#42E8E0" points="401.927,97.912 396.932,95.029 401.927,92.146 406.92,95.029 						"/>
						<polygon fill="#42E8E0" points="411.914,103.681 406.92,100.797 411.914,97.912 416.91,100.797 						"/>
						<polygon fill="#42E8E0" points="421.904,109.447 416.91,106.562 421.904,103.68 426.899,106.562 						"/>
						<polygon fill="#42E8E0" points="431.894,115.214 426.899,112.331 431.894,109.447 436.887,112.331 						"/>
					</g>
					<g>
						<polygon fill="#42E8E0" points="341.953,74.868 336.958,71.985 341.953,69.1 346.947,71.985 						"/>
						<polygon fill="#42E8E0" points="351.943,80.635 346.947,77.751 351.941,74.869 356.937,77.751 						"/>
						<polygon fill="#42E8E0" points="361.93,86.401 356.937,83.518 361.93,80.635 366.926,83.519 						"/>
						<polygon opacity="0.1" fill="#42E8E0" points="371.92,92.169 366.926,89.286 371.92,86.401 376.913,89.286 						"/>
						<polygon opacity="0.4" fill="#42E8E0" points="381.909,97.936 376.913,95.052 381.909,92.169 386.901,95.052 						"/>
						<polygon opacity="0.4" fill="#42E8E0" points="391.897,103.703 386.901,100.82 391.896,97.936 396.892,100.82 						"/>
						<polygon fill="#42E8E0" points="401.886,109.47 396.892,106.587 401.886,103.703 406.881,106.587 						"/>
						<polygon fill="#42E8E0" points="411.875,115.237 406.881,112.354 411.875,109.471 416.868,112.354 						"/>
						<polygon fill="#42E8E0" points="421.864,121.005 416.871,118.121 421.864,115.237 426.858,118.121 						"/>
					</g>
					<g>
						<polygon opacity="0.4" fill="#42E8E0" points="331.924,80.658 326.928,77.775 331.924,74.891 336.918,77.775 						"/>
						<polygon opacity="0.4" fill="#42E8E0" points="341.912,86.425 336.918,83.541 341.912,80.659 346.907,83.541 						"/>
						<polygon opacity="0.1" fill="#42E8E0" points="351.901,92.192 346.907,89.309 351.901,86.425 356.895,89.309 						"/>
						<polygon fill="#42E8E0" points="361.891,97.96 356.895,95.076 361.891,92.192 366.885,95.076 						"/>
						<polygon fill="#42E8E0" points="371.88,103.727 366.885,100.842 371.88,97.96 376.873,100.843 						"/>
						<polygon fill="#42E8E0" points="381.867,109.493 376.873,106.61 381.867,103.727 386.862,106.61 						"/>
						<polygon opacity="0.4" fill="#42E8E0" points="391.856,115.261 386.862,112.377 391.856,109.493 396.853,112.377 						"/>
						<polygon fill="#42E8E0" points="401.846,121.027 396.853,118.145 401.846,115.261 406.84,118.145 						"/>
						<polygon fill="#42E8E0" points="411.835,126.795 406.84,123.912 411.835,121.027 416.828,123.912 						"/>
					</g>
					<g>
						<polygon fill="#42E8E0" points="321.893,86.449 316.899,83.565 321.893,80.681 326.889,83.565 						"/>
						<polygon fill="#42E8E0" points="331.882,92.215 326.889,89.333 331.882,86.449 336.878,89.333 						"/>
						<polygon fill="#42E8E0" points="341.872,97.982 336.878,95.1 341.872,92.215 346.865,95.1 						"/>
						<polygon fill="#42E8E0" points="351.861,103.75 346.865,100.866 351.861,97.983 356.854,100.866 						"/>
						<polygon fill="#42E8E0" points="361.851,109.517 356.854,106.633 361.849,103.75 366.844,106.633 						"/>
						<polygon fill="#42E8E0" points="371.838,115.284 366.844,112.401 371.838,109.517 376.834,112.401 						"/>
						<polygon fill="#42E8E0" points="381.827,121.051 376.834,118.167 381.827,115.284 386.821,118.167 						"/>
						<polygon fill="#42E8E0" points="391.817,126.817 386.821,123.935 391.817,121.051 396.81,123.935 						"/>
						<polygon fill="#42E8E0" points="401.806,132.586 396.81,129.702 401.806,126.817 406.8,129.702 						"/>
					</g>
					<g>
						<polygon fill="#42E8E0" points="311.864,92.24 306.871,89.355 311.864,86.472 316.86,89.355 						"/>
						<polygon fill="#42E8E0" points="321.854,98.005 316.86,95.124 321.854,92.24 326.847,95.124 						"/>
						<polygon opacity="0.4" fill="#42E8E0" points="331.843,103.773 326.849,100.89 331.843,98.005 336.836,100.89 						"/>
						<polygon fill="#42E8E0" points="341.832,109.541 336.836,106.656 341.832,103.774 346.826,106.656 						"/>
						<polygon opacity="0.1" fill="#42E8E0" points="351.819,115.307 346.826,112.423 351.819,109.541 356.815,112.424 						"/>
						<polygon fill="#42E8E0" points="361.809,121.074 356.815,118.191 361.809,115.307 366.803,118.191 						"/>
						<polygon fill="#42E8E0" points="371.799,126.841 366.805,123.958 371.799,121.074 376.792,123.958 						"/>
						<polygon fill="#42E8E0" points="381.787,132.608 376.792,129.726 381.787,126.841 386.781,129.726 						"/>
						<polygon fill="#42E8E0" points="391.776,138.376 386.781,135.492 391.774,132.609 396.771,135.492 						"/>
					</g>
					<g>
						<polygon fill="#42E8E0" points="301.835,98.03 296.841,95.145 301.835,92.262 306.831,95.145 						"/>
						<polygon fill="#42E8E0" points="311.825,103.796 306.831,100.914 311.825,98.03 316.818,100.914 						"/>
						<polygon opacity="0.4" fill="#42E8E0" points="321.814,109.563 316.818,106.68 321.814,103.796 326.808,106.68 						"/>
						<polygon fill="#42E8E0" points="331.801,115.331 326.808,112.447 331.801,109.564 336.796,112.447 						"/>
						<polygon fill="#42E8E0" points="341.791,121.098 336.796,118.215 341.791,115.331 346.786,118.215 						"/>
						<polygon opacity="0.1" fill="#42E8E0" points="351.78,126.865 346.786,123.981 351.78,121.098 356.773,123.981 						"/>
						<polygon opacity="0.4" fill="#42E8E0" points="361.77,132.632 356.773,129.748 361.77,126.865 366.763,129.749 						"/>
						<polygon fill="#42E8E0" points="371.758,138.399 366.763,135.516 371.758,132.632 376.752,135.516 						"/>
						<polygon opacity="0.1" fill="#42E8E0" points="381.746,144.167 376.752,141.282 381.746,138.399 386.741,141.282 						"/>
					</g>
					<g>
						<polygon fill="#42E8E0" points="291.806,103.82 286.812,100.936 291.806,98.053 296.8,100.937 						"/>
						<polygon opacity="0.4" fill="#42E8E0" points="301.795,109.586 296.802,106.704 301.795,103.82 306.789,106.704 						"/>
						<polygon fill="#42E8E0" points="311.785,115.354 306.789,112.47 311.785,109.587 316.779,112.47 						"/>
						<polygon fill="#42E8E0" points="321.772,121.121 316.779,118.238 321.772,115.354 326.768,118.238 						"/>
						<polygon fill="#42E8E0" points="331.762,126.888 326.768,124.005 331.762,121.121 336.755,124.005 						"/>
						<polygon fill="#42E8E0" points="341.75,132.656 336.757,129.771 341.75,126.888 346.745,129.771 						"/>
						<polygon fill="#42E8E0" points="351.74,138.422 346.745,135.539 351.74,132.656 356.733,135.539 						"/>
						<polygon opacity="0.4" fill="#42E8E0" points="361.728,144.189 356.733,141.306 361.728,138.422 366.723,141.306 						"/>
						<polygon fill="#42E8E0" points="371.717,149.957 366.723,147.072 371.717,144.189 376.713,147.072 						"/>
					</g>
					<g>
						<polygon fill="#42E8E0" points="281.777,109.61 276.783,106.727 281.777,103.843 286.771,106.727 						"/>
						<polygon opacity="0.1" fill="#42E8E0" points="291.766,115.378 286.771,112.494 291.766,109.61 296.76,112.494 						"/>
						<polygon fill="#42E8E0" points="301.756,121.145 296.76,118.26 301.754,115.378 306.749,118.26 						"/>
						<polygon fill="#42E8E0" points="311.743,126.911 306.749,124.029 311.743,121.145 316.739,124.029 						"/>
						<polygon fill="#42E8E0" points="321.732,132.678 316.739,129.795 321.732,126.911 326.726,129.795 						"/>
						<polygon fill="#42E8E0" points="331.722,138.446 326.726,135.562 331.722,132.679 336.715,135.562 						"/>
						<polygon opacity="0.4" fill="#42E8E0" points="341.711,144.212 336.715,141.329 341.709,138.446 346.705,141.33 						"/>
						<polygon fill="#42E8E0" points="351.698,149.98 346.705,147.096 351.698,144.212 356.694,147.096 						"/>
						<polygon fill="#42E8E0" points="361.688,155.747 356.694,152.863 361.688,149.98 366.682,152.864 						"/>
					</g>
				</g>
			</g>
			<g>
				<g>
					<g>
						<path fill="#42E8E0" d="M531.16,474.487c-2.725,0-5.403-0.714-7.753-2.067l-89.371-51.602
							c-1.402-0.809-2.238-2.259-2.238-3.877c0-1.617,0.836-3.065,2.238-3.875l161.709-93.363c0.272-0.151,0.607-0.154,0.88,0
							l0.749,0.432l95.938,55.39c1.4,0.811,2.237,2.258,2.237,3.877c0,1.618-0.837,3.065-2.237,3.873L538.917,472.42
							C536.567,473.773,533.887,474.487,531.16,474.487z M596.186,321.485l-161.267,93.108c-0.852,0.49-1.357,1.368-1.357,2.348
							c0,0.98,0.506,1.858,1.357,2.348l89.371,51.605c4.16,2.396,9.586,2.394,13.745-0.005l154.396-89.143
							c0.848-0.488,1.354-1.366,1.354-2.346c0-0.981-0.507-1.859-1.354-2.35L596.186,321.485z"/>
					</g>
					<g>
						<g>
							<g>
								<g>
									<g>
										
											<linearGradient id="SVGID_16_" gradientUnits="userSpaceOnUse" x1="2676.5215" y1="271.2832" x2="2875.1113" y2="271.2832" gradientTransform="matrix(1 0 0 1 -2278.6904 0)">
											<stop  offset="0" style="stop-color:#C0BFF6"/>
											<stop  offset="0.2938" style="stop-color:#C5C4F7"/>
											<stop  offset="0.6399" style="stop-color:#D3D2F9"/>
											<stop  offset="1" style="stop-color:#E9E9FD"/>
										</linearGradient>
										<path fill="url(#SVGID_16_)" d="M596.385,283.634l-21.51-127.615l1.729-0.727l-2.6-1.49l0.003,0.014
											c-0.502-0.336-1.216-0.315-2.002,0.139L400.1,253.204c-1.412,0.816-2.481,2.906-2.232,4.368L419.548,386.2
											c0.113,0.671,0.444,1.115,0.906,1.31l-0.002,0.002l2.542,1.468l0.437-2.374l-0.145,0.044L594.151,288
											C595.564,287.186,596.634,285.096,596.385,283.634z"/>
										
											<linearGradient id="SVGID_17_" gradientUnits="userSpaceOnUse" x1="2676.5225" y1="322.2109" x2="2710.623" y2="322.2109" gradientTransform="matrix(1 0 0 1 -2278.6904 0)">
											<stop  offset="0" style="stop-color:#5761D7"/>
											<stop  offset="0.1779" style="stop-color:#5C66D9"/>
											<stop  offset="0.3876" style="stop-color:#6A73DF"/>
											<stop  offset="0.6134" style="stop-color:#8289E8"/>
											<stop  offset="0.849" style="stop-color:#A3A7F5"/>
											<stop  offset="1" style="stop-color:#BCBEFF"/>
										</linearGradient>
										<path fill="url(#SVGID_17_)" d="M401.057,256.694l-2.826-1.251c-0.315,0.725-0.473,1.485-0.363,2.129L419.548,386.2
											c0.113,0.671,0.444,1.115,0.906,1.31l-0.002,0.002l2.542,1.468l0.437-2.374l-0.145,0.044l8.646-4.991L401.057,256.694z"/>
										<path fill="#24126A" d="M596.849,289.549l-171.905,99.25c-1.329,0.767-2.466,0.323-2.698-1.052l-21.681-128.63
											c-0.249-1.459,0.821-3.551,2.233-4.365l171.905-99.249c1.327-0.768,2.464-0.324,2.698,1.049l21.679,128.628
											C599.329,286.643,598.261,288.732,596.849,289.549z"/>
										<g opacity="0.51">
											<polygon fill="#453C9E" points="572.458,163.712 406.752,259.383 427.301,380.523 592.895,284.919 											"/>
										</g>
									</g>
									<g>
										
											<linearGradient id="SVGID_18_" gradientUnits="userSpaceOnUse" x1="2703.1279" y1="379.4619" x2="2983.5996" y2="379.4619" gradientTransform="matrix(1 0 0 1 -2278.6904 0)">
											<stop  offset="0" style="stop-color:#5761D7"/>
											<stop  offset="0.1779" style="stop-color:#5C66D9"/>
											<stop  offset="0.3876" style="stop-color:#6A73DF"/>
											<stop  offset="0.6134" style="stop-color:#8289E8"/>
											<stop  offset="0.849" style="stop-color:#A3A7F5"/>
											<stop  offset="1" style="stop-color:#BCBEFF"/>
										</linearGradient>
										<path fill="url(#SVGID_18_)" d="M704.909,350.446l-9.382,4.898l-94.069-54.312c-1.576-0.909-4.324-0.796-6.143,0.255
											L433.068,394.96c-1.553-0.868-8.631-4.272-8.631-4.272l3.435,8.949c0,0,0.011-0.011,0.013-0.013
											c0.143,0.397,0.449,0.771,0.962,1.064l99.074,57.203c1.575,0.908,4.324,0.794,6.142-0.254l166.029-95.857
											c0.747-0.434,1.203-0.953,1.393-1.481l0.014,0.008L704.909,350.446z"/>
										
											<linearGradient id="SVGID_19_" gradientUnits="userSpaceOnUse" x1="2797.3682" y1="370.1104" x2="3077.9893" y2="370.1104" gradientTransform="matrix(1 0 0 1 -2278.6904 0)">
											<stop  offset="0" style="stop-color:#C0BFF6"/>
											<stop  offset="0.2938" style="stop-color:#C5C4F7"/>
											<stop  offset="0.6399" style="stop-color:#D3D2F9"/>
											<stop  offset="1" style="stop-color:#E9E9FD"/>
										</linearGradient>
										<path fill="url(#SVGID_19_)" d="M703.459,351.987l-170.158,98.241c-1.862,1.076-4.681,1.191-6.293,0.262l-101.541-58.625
											c-1.612-0.932-1.41-2.559,0.453-3.633l170.159-98.241c1.86-1.074,4.679-1.191,6.293-0.26l101.539,58.623
											C705.524,349.286,705.321,350.913,703.459,351.987z"/>
										<path fill="#FFFFFF" d="M703.459,351.007l-170.158,98.241c-1.862,1.076-4.681,1.191-6.293,0.262l-101.541-58.625
											c-0.528-0.305-0.842-0.688-0.984-1.097c-0.256,0.765,0.05,1.537,0.984,2.077l101.541,58.625
											c1.612,0.93,4.431,0.814,6.293-0.262l170.158-98.241c1.254-0.723,1.735-1.692,1.438-2.534
											C704.713,350.005,704.241,350.555,703.459,351.007z"/>
										<path fill="#2842A2" d="M481.977,428.979v-1.867c0-0.177,0.107-0.258,0.239-0.181l6.582,3.8
											c0.133,0.075,0.241,0.282,0.241,0.459v1.865c0,0.179-0.108,0.258-0.241,0.183l-6.582-3.8
											C482.084,429.36,481.977,429.155,481.977,428.979z"/>
										<path fill="#2842A2" d="M491.817,434.659v-1.864c0-0.178,0.109-0.259,0.24-0.182l6.583,3.8
											c0.133,0.076,0.239,0.28,0.239,0.459v1.866c0,0.176-0.106,0.258-0.239,0.18l-6.583-3.798
											C491.927,435.042,491.817,434.838,491.817,434.659z"/>
										<path fill="#ADB1F2" d="M451.939,386.376l141.401-81.64c0.943-0.545,2.106-0.545,3.048,0.002l50.352,29.132
											c0.723,0.419,0.723,1.462,0,1.881l-141.336,81.6c-0.941,0.544-2.102,0.544-3.043,0l-50.422-29.096
											C451.217,387.837,451.217,386.792,451.939,386.376z"/>
										<path fill="#9198DB" d="M451.939,388.255l0.507,0.293l140.895-81.347c0.943-0.544,2.106-0.542,3.048,0.002l49.845,28.838
											l0.507-0.29c0.723-0.419,0.723-1.462,0-1.881l-50.352-29.132c-0.941-0.547-2.104-0.547-3.048-0.002l-141.401,81.64
											C451.217,386.792,451.217,387.837,451.939,388.255z"/>
										<g>
											<polygon fill="#24126A" points="600.188,312.116 477.36,383.03 471.9,379.878 594.728,308.964 											"/>
											<polygon fill="#24126A" points="613.578,319.847 498.37,386.361 492.908,383.209 608.115,316.694 											"/>
											<polygon fill="#24126A" points="622.299,324.882 486.653,403.195 481.192,400.041 616.836,321.728 											"/>
											<polygon fill="#24126A" points="631.019,329.916 495.375,408.23 489.913,405.076 625.558,326.763 											"/>
											<polygon fill="#24126A" points="639.739,334.951 504.095,413.267 498.632,410.111 634.278,331.799 											"/>
											<polygon fill="#24126A" points="469.939,387.315 464.477,390.469 459.017,387.315 464.477,384.163 											"/>
											<polygon fill="#24126A" points="489.203,391.654 477.867,398.198 472.406,395.046 483.74,388.501 											"/>
										</g>
										
											<linearGradient id="SVGID_20_" gradientUnits="userSpaceOnUse" x1="2844.8906" y1="386.041" x2="2916.7227" y2="386.041" gradientTransform="matrix(1 0 0 1 -2278.6904 0)">
											<stop  offset="0" style="stop-color:#C0BFF6"/>
											<stop  offset="0.2938" style="stop-color:#C5C4F7"/>
											<stop  offset="0.6399" style="stop-color:#D3D2F9"/>
											<stop  offset="1" style="stop-color:#E9E9FD"/>
										</linearGradient>
										<path fill="url(#SVGID_20_)" d="M598.786,406.131l38.128-22.013c1.49-0.859,1.49-2.256,0-3.116l-26.072-15.052
											c-1.49-0.86-3.907-0.86-5.397,0l-38.126,22.012c-1.489,0.86-1.491,2.255,0,3.117l26.071,15.052
											C594.882,406.992,597.297,406.992,598.786,406.131z"/>
										<path fill="#9198DB" d="M567.318,389.237l38.126-22.013c1.492-0.859,3.907-0.859,5.397,0l26.072,15.054
											c0.459,0.266,0.761,0.583,0.936,0.919c0.396-0.751,0.094-1.599-0.936-2.195l-26.072-15.052c-1.49-0.86-3.905-0.86-5.397,0
											l-38.126,22.012c-1.031,0.596-1.331,1.444-0.938,2.195C566.558,389.822,566.858,389.502,567.318,389.237z"/>
									</g>
								</g>
								<g opacity="0.11">
									<defs>
										<polygon id="SVGID_10_" opacity="0.11" points="572.458,163.712 406.752,259.383 427.301,380.523 592.895,284.919 
																					"/>
									</defs>
									<clipPath id="SVGID_21_">
										<use xlink:href="#SVGID_10_"  overflow="visible"/>
									</clipPath>
									<g clip-path="url(#SVGID_21_)">
										
											<linearGradient id="SVGID_22_" gradientUnits="userSpaceOnUse" x1="2690.1553" y1="307.9111" x2="2970.7764" y2="307.9111" gradientTransform="matrix(1 0 0 1 -2278.6904 0)">
											<stop  offset="0" style="stop-color:#C0BFF6"/>
											<stop  offset="0.2938" style="stop-color:#C5C4F7"/>
											<stop  offset="0.6399" style="stop-color:#D3D2F9"/>
											<stop  offset="1" style="stop-color:#E9E9FD"/>
										</linearGradient>
										<path fill="url(#SVGID_22_)" d="M596.245,289.789l-170.158,98.24c-1.862,1.075-4.68,1.192-6.293,0.261l-101.54-58.623
											c-1.613-0.932-1.41-2.559,0.451-3.634l170.16-98.239c1.862-1.077,4.681-1.192,6.293-0.262l101.541,58.625
											C598.312,287.087,598.109,288.714,596.245,289.789z"/>
										
											<linearGradient id="SVGID_23_" gradientUnits="userSpaceOnUse" x1="2671.6836" y1="287.3115" x2="2743.5166" y2="287.3115" gradientTransform="matrix(1 0 0 1 -2278.6904 0)">
											<stop  offset="0" style="stop-color:#C0BFF6"/>
											<stop  offset="0.2938" style="stop-color:#C5C4F7"/>
											<stop  offset="0.6399" style="stop-color:#D3D2F9"/>
											<stop  offset="1" style="stop-color:#E9E9FD"/>
										</linearGradient>
										<path fill="url(#SVGID_23_)" d="M425.58,307.402l38.129-22.013c1.489-0.86,1.489-2.255,0-3.114l-26.073-15.054
											c-1.489-0.861-3.906-0.861-5.396,0l-38.127,22.013c-1.491,0.859-1.491,2.255,0,3.115l26.071,15.053
											C421.673,308.262,424.091,308.262,425.58,307.402z"/>
										<path fill="#9198DB" d="M394.112,290.509l38.127-22.014c1.49-0.859,3.907-0.859,5.396,0l26.073,15.055
											c0.459,0.265,0.758,0.584,0.936,0.92c0.395-0.753,0.093-1.601-0.936-2.194l-26.073-15.054
											c-1.489-0.861-3.906-0.861-5.396,0l-38.127,22.013c-1.03,0.595-1.331,1.442-0.938,2.193
											C393.353,291.095,393.651,290.774,394.112,290.509z"/>
										<g>
											<path fill="#ADB1F2" d="M377.352,341.804l141.403-81.639c0.941-0.545,2.103-0.545,3.044,0.002l50.354,29.132
												c0.723,0.419,0.721,1.462-0.002,1.879l-141.335,81.601c-0.941,0.544-2.102,0.544-3.045,0l-50.42-29.094
												C376.627,343.266,376.627,342.221,377.352,341.804z"/>
											<path fill="#9198DB" d="M377.352,343.685l0.507,0.29l140.896-81.345c0.941-0.545,2.103-0.545,3.044,0.002l49.849,28.84
												l0.504-0.294c0.723-0.417,0.725-1.46,0.002-1.879l-50.354-29.132c-0.941-0.547-2.103-0.547-3.044-0.002l-141.403,81.639
												C376.627,342.221,376.627,343.266,377.352,343.685z"/>
											<g>
												<polygon fill="#24126A" points="558.977,287.312 435.791,358.433 440.669,361.25 563.854,290.129 												"/>
												<polygon fill="#24126A" points="545.995,279.817 428.91,347.417 433.791,350.235 550.876,282.636 												"/>
												<polygon fill="#24126A" points="420.168,352.464 409.23,358.778 414.111,361.595 425.046,355.283 												"/>
												<polygon fill="#24126A" points="429.825,361.875 422.211,366.273 427.09,369.09 434.706,364.694 												"/>
												<polygon fill="#24126A" points="537.863,275.122 401.099,354.083 405.977,356.901 542.743,277.94 												"/>
												<polygon fill="#24126A" points="529.731,270.429 392.966,349.388 397.845,352.206 534.609,273.245 												"/>
												<polygon fill="#24126A" points="521.597,265.732 384.832,344.693 389.713,347.511 526.478,268.549 												"/>
											</g>
										</g>
									</g>
								</g>
							</g>
						</g>
					</g>
					<g>
						<polygon fill="#42E8E0" points="469.147,334.337 482.553,326.588 482.946,328.915 469.54,336.663 						"/>
						<polygon fill="#42E8E0" points="484.71,325.351 492.014,321.128 492.408,323.456 485.102,327.679 						"/>
						<polygon fill="#42E8E0" points="503.38,314.568 508.665,311.514 509.059,313.842 503.773,316.896 						"/>
						<polygon fill="#42E8E0" points="499.526,316.795 501.332,315.753 501.725,318.08 499.918,319.124 						"/>
						<polygon fill="#42E8E0" points="494.197,319.877 497.477,317.979 497.87,320.307 494.59,322.204 						"/>
						<polygon fill="#42E8E0" points="479.754,316.531 485.04,313.477 485.433,315.804 480.148,318.859 						"/>
						<polygon fill="#42E8E0" points="467.351,323.7 477.707,317.716 478.1,320.043 467.745,326.027 						"/>
						<g>
							<polygon fill="#42E8E0" points="482.197,285.972 492.552,279.986 492.946,282.314 482.591,288.299 							"/>
							<polygon fill="#42E8E0" points="476.87,289.05 480.149,287.155 480.543,289.481 477.263,291.379 							"/>
						</g>
						<polygon fill="#42E8E0" points="483.925,296.62 494.28,290.636 494.674,292.963 484.319,298.948 						"/>
						<polygon fill="#42E8E0" points="478.599,299.701 481.878,297.804 482.271,300.132 478.991,302.029 						"/>
						<polygon fill="#42E8E0" points="474.555,240.012 455.046,251.286 454.652,248.958 474.16,237.684 						"/>
						<polygon fill="#42E8E0" points="481.429,236.037 476.602,238.828 476.209,236.5 481.035,233.709 						"/>
						<polygon fill="#42E8E0" points="515.709,233.776 496.201,245.051 495.808,242.723 515.316,231.448 						"/>
						<polygon fill="#42E8E0" points="522.584,229.802 517.757,232.592 517.363,230.265 522.191,227.474 						"/>
						<polygon fill="#42E8E0" points="461.229,253.548 455.944,256.604 455.551,254.274 460.836,251.221 						"/>
						<polygon fill="#42E8E0" points="493.385,246.651 488.1,249.707 487.705,247.379 492.991,244.324 						"/>
						<polygon fill="#42E8E0" points="473.632,246.38 463.277,252.364 462.885,250.036 473.239,244.052 						"/>
						<polygon fill="#42E8E0" points="478.96,243.301 475.681,245.196 475.287,242.868 478.568,240.973 						"/>
						<polygon fill="#42E8E0" points="491.46,236.089 481.103,242.074 480.712,239.748 491.067,233.761 						"/>
						<polygon fill="#42E8E0" points="496.788,233.01 493.508,234.905 493.114,232.577 496.394,230.682 						"/>
						<polygon fill="#42E8E0" points="492.486,241.331 487.201,244.385 486.808,242.058 492.093,239.004 						"/>
						<polygon fill="#42E8E0" points="504.889,234.162 494.535,240.149 494.142,237.821 504.496,231.834 						"/>
						<polygon fill="#42E8E0" points="510.219,231.083 506.938,232.978 506.544,230.65 509.825,228.755 						"/>
						<polygon fill="#42E8E0" points="467.655,255.67 456.841,261.921 456.448,259.592 467.263,253.342 						"/>
						<polygon fill="#42E8E0" points="477.524,249.967 469.704,254.485 469.31,252.16 477.13,247.639 						"/>
						<polygon fill="#42E8E0" points="484.857,245.728 479.571,248.783 479.181,246.455 484.464,243.402 						"/>
						<polygon fill="#42E8E0" points="536.115,222.006 525.301,228.254 524.907,225.926 535.722,219.678 						"/>
						<polygon fill="#42E8E0" points="545.982,216.301 538.163,220.822 537.77,218.494 545.59,213.973 						"/>
						<polygon fill="#42E8E0" points="553.317,212.062 548.031,215.117 547.64,212.789 552.923,209.736 						"/>
						<polygon fill="#42E8E0" points="531.893,292.27 542.706,286.021 543.099,288.35 532.285,294.599 						"/>
						<polygon fill="#42E8E0" points="522.023,297.976 529.844,293.454 530.237,295.781 522.417,300.303 						"/>
						<polygon fill="#42E8E0" points="514.69,302.212 519.976,299.158 520.369,301.485 515.083,304.539 						"/>
						<polygon fill="#42E8E0" points="528.303,300.204 539.116,293.952 539.509,296.28 528.696,302.531 						"/>
						<polygon fill="#42E8E0" points="518.435,305.906 526.255,301.388 526.647,303.716 518.827,308.233 						"/>
						<polygon fill="#42E8E0" points="511.101,310.146 516.387,307.09 516.78,309.418 511.494,312.474 						"/>
						<polygon fill="#42E8E0" points="484.639,290.367 488.292,288.258 488.683,290.585 485.032,292.695 						"/>
						<polygon fill="#42E8E0" points="477.764,294.342 482.591,291.553 482.983,293.88 478.155,296.67 						"/>
						<polygon fill="#42E8E0" points="468.623,260.957 457.809,267.206 457.416,264.878 468.231,258.63 						"/>
						<polygon fill="#42E8E0" points="478.493,255.253 470.673,259.773 470.279,257.445 478.1,252.926 						"/>
						<polygon fill="#42E8E0" points="485.826,251.016 480.541,254.068 480.148,251.743 485.433,248.688 						"/>
						<polygon fill="#42E8E0" points="462.36,270.414 458.707,272.525 458.316,270.197 461.966,268.086 						"/>
						<polygon fill="#42E8E0" points="469.235,266.439 464.407,269.228 464.017,266.9 468.843,264.111 						"/>
						<polygon fill="#42E8E0" points="479.062,260.761 471.284,265.256 470.892,262.928 478.667,258.435 						"/>
						<polygon fill="#42E8E0" points="489.606,305.03 493.26,302.921 493.652,305.249 489.999,307.357 						"/>
						<polygon fill="#42E8E0" points="482.731,309.005 487.559,306.214 487.952,308.542 483.125,311.332 						"/>
						<polygon fill="#42E8E0" points="472.907,314.685 480.685,310.188 481.077,312.517 473.301,317.012 						"/>
						<polygon fill="#42E8E0" points="495.171,296.397 502.946,291.902 503.34,294.23 495.563,298.727 						"/>
						<polygon fill="#42E8E0" points="482.449,303.332 492.934,297.273 493.327,299.6 482.844,305.66 						"/>
						<polygon fill="#42E8E0" points="477.122,306.411 480.402,304.517 480.795,306.844 477.516,308.739 						"/>
						<polygon fill="#42E8E0" points="472.009,309.367 475.289,307.472 475.683,309.797 472.403,311.694 						"/>
						<g>
							<polygon fill="#42E8E0" points="472.711,279.319 483.067,273.332 483.46,275.66 473.104,281.647 							"/>
							<polygon fill="#42E8E0" points="467.384,282.398 470.662,280.503 471.056,282.829 467.776,284.726 							"/>
							<polygon fill="#42E8E0" points="473.423,273.065 477.076,270.955 477.47,273.282 473.817,275.395 							"/>
							<polygon fill="#42E8E0" points="486.319,277.324 489.971,275.216 490.363,277.543 486.712,279.653 							"/>
							<polygon fill="#42E8E0" points="491.525,274.319 500.289,269.258 500.683,271.586 491.919,276.647 							"/>
							<polygon fill="#42E8E0" points="501.845,268.362 507.057,265.351 507.449,267.679 502.238,270.69 							"/>
							<polygon fill="#42E8E0" points="466.549,277.038 471.376,274.25 471.77,276.577 466.942,279.367 							"/>
							<g>
								<polygon fill="#42E8E0" points="466.094,271.575 469.747,269.463 470.139,271.79 466.487,273.902 								"/>
								<polygon fill="#42E8E0" points="459.219,275.55 464.047,272.76 464.439,275.086 459.612,277.877 								"/>
							</g>
							<polygon fill="#42E8E0" points="481.02,280.384 484.299,278.488 484.692,280.816 481.413,282.712 							"/>
							<polygon fill="#42E8E0" points="475.905,283.34 479.187,281.444 479.579,283.772 476.298,285.667 							"/>
						</g>
						<polygon fill="#42E8E0" points="501.1,310.065 512.287,303.6 512.681,305.929 501.493,312.394 						"/>
						<polygon fill="#42E8E0" points="488.568,317.309 499.052,311.25 499.442,313.577 488.961,319.636 						"/>
						<polygon fill="#42E8E0" points="483.24,320.389 486.52,318.491 486.913,320.82 483.634,322.717 						"/>
						<polygon fill="#42E8E0" points="478.128,323.344 481.407,321.447 481.8,323.775 478.52,325.673 						"/>
						<polygon fill="#42E8E0" points="475.331,324.959 468.253,329.05 468.646,331.377 475.724,327.288 						"/>
					</g>
				</g>
				<g>
					<g>
						<path fill="#42E8E0" d="M192.537,474.487c-2.726,0-5.407-0.714-7.755-2.067l0,0L30.387,383.274
							c-1.399-0.806-2.237-2.255-2.237-3.873c0-1.619,0.837-3.069,2.237-3.877l96.688-55.821c0.272-0.154,0.608-0.151,0.88,0
							l161.709,93.361c1.4,0.812,2.236,2.262,2.236,3.877c0,1.618-0.836,3.067-2.236,3.877l-89.374,51.602
							C197.943,473.773,195.264,474.487,192.537,474.487z M185.664,470.89c4.159,2.4,9.588,2.4,13.744,0l89.374-51.601
							c0.848-0.489,1.355-1.367,1.355-2.348c0-0.979-0.507-1.857-1.357-2.35l-161.268-93.106l-96.243,55.568
							c-0.847,0.488-1.354,1.366-1.354,2.348c0,0.979,0.507,1.857,1.354,2.346l154.395,89.147V470.89z"/>
					</g>
					<g>
						<g>
							<g>
								<g>
									<g>
										
											<linearGradient id="SVGID_24_" gradientUnits="userSpaceOnUse" x1="70.4985" y1="271.2832" x2="269.0874" y2="271.2832" gradientTransform="matrix(-1 0 0 1 396.3662 0)">
											<stop  offset="0" style="stop-color:#C0BFF6"/>
											<stop  offset="0.2938" style="stop-color:#C5C4F7"/>
											<stop  offset="0.6399" style="stop-color:#D3D2F9"/>
											<stop  offset="1" style="stop-color:#E9E9FD"/>
										</linearGradient>
										<path fill="url(#SVGID_24_)" d="M127.315,283.634l21.51-127.615l-1.73-0.727l2.6-1.49l-0.004,0.014
											c0.503-0.336,1.216-0.315,2.002,0.139L323.6,253.204c1.412,0.816,2.48,2.906,2.232,4.368L304.151,386.2
											c-0.113,0.671-0.444,1.115-0.906,1.31l0.002,0.002l-2.542,1.468l-0.437-2.374l0.145,0.044L129.547,288
											C128.135,287.186,127.066,285.096,127.315,283.634z"/>
										
											<linearGradient id="SVGID_25_" gradientUnits="userSpaceOnUse" x1="70.4995" y1="322.2109" x2="104.6001" y2="322.2109" gradientTransform="matrix(-1 0 0 1 396.3662 0)">
											<stop  offset="0" style="stop-color:#5761D7"/>
											<stop  offset="0.1779" style="stop-color:#5C66D9"/>
											<stop  offset="0.3876" style="stop-color:#6A73DF"/>
											<stop  offset="0.6134" style="stop-color:#8289E8"/>
											<stop  offset="0.849" style="stop-color:#A3A7F5"/>
											<stop  offset="1" style="stop-color:#BCBEFF"/>
										</linearGradient>
										<path fill="url(#SVGID_25_)" d="M322.642,256.694l2.827-1.251c0.315,0.725,0.473,1.485,0.363,2.129L304.151,386.2
											c-0.113,0.671-0.444,1.115-0.906,1.31l0.002,0.002l-2.542,1.468l-0.437-2.374l0.145,0.044l-8.646-4.991L322.642,256.694z"
											/>
										<path fill="#24126A" d="M126.85,289.549l171.907,99.25c1.329,0.767,2.465,0.323,2.698-1.052l21.681-128.63
											c0.249-1.459-0.82-3.551-2.233-4.365l-171.906-99.249c-1.327-0.768-2.463-0.324-2.696,1.049l-21.681,128.628
											C124.371,286.643,125.439,288.732,126.85,289.549z"/>
										<g opacity="0.51">
											<polygon fill="#453C9E" points="151.242,163.712 316.947,259.383 296.398,380.523 130.805,284.919 											"/>
										</g>
									</g>
									<g>
										
											<linearGradient id="SVGID_26_" gradientUnits="userSpaceOnUse" x1="97.105" y1="379.4619" x2="377.5762" y2="379.4619" gradientTransform="matrix(-1 0 0 1 396.3662 0)">
											<stop  offset="0" style="stop-color:#5761D7"/>
											<stop  offset="0.1779" style="stop-color:#5C66D9"/>
											<stop  offset="0.3876" style="stop-color:#6A73DF"/>
											<stop  offset="0.6134" style="stop-color:#8289E8"/>
											<stop  offset="0.849" style="stop-color:#A3A7F5"/>
											<stop  offset="1" style="stop-color:#BCBEFF"/>
										</linearGradient>
										<path fill="url(#SVGID_26_)" d="M18.79,350.446l9.381,4.898l94.072-54.312c1.574-0.909,4.323-0.796,6.14,0.255
											L290.63,394.96c1.553-0.868,8.631-4.272,8.631-4.272l-3.433,8.949c0,0-0.012-0.011-0.014-0.013
											c-0.143,0.397-0.449,0.771-0.961,1.064l-99.075,57.203c-1.575,0.908-4.324,0.794-6.142-0.254L23.607,361.78
											c-0.747-0.434-1.204-0.953-1.393-1.481l-0.013,0.008L18.79,350.446z"/>
										
											<linearGradient id="SVGID_27_" gradientUnits="userSpaceOnUse" x1="191.3442" y1="370.1104" x2="471.9658" y2="370.1104" gradientTransform="matrix(-1 0 0 1 396.3662 0)">
											<stop  offset="0" style="stop-color:#C0BFF6"/>
											<stop  offset="0.2938" style="stop-color:#C5C4F7"/>
											<stop  offset="0.6399" style="stop-color:#D3D2F9"/>
											<stop  offset="1" style="stop-color:#E9E9FD"/>
										</linearGradient>
										<path fill="url(#SVGID_27_)" d="M20.24,351.987l170.159,98.241c1.863,1.076,4.68,1.191,6.292,0.262l101.541-58.625
											c1.613-0.932,1.41-2.559-0.453-3.633l-170.159-98.241c-1.861-1.074-4.68-1.191-6.293-0.26l-101.54,58.623
											C18.174,349.286,18.377,350.913,20.24,351.987z"/>
										<path fill="#FFFFFF" d="M20.24,351.007l170.159,98.241c1.863,1.076,4.68,1.191,6.292,0.262l101.541-58.625
											c0.528-0.305,0.842-0.688,0.985-1.097c0.256,0.765-0.05,1.537-0.985,2.077L196.691,450.49
											c-1.613,0.93-4.429,0.814-6.292-0.262L20.24,351.987c-1.253-0.723-1.735-1.692-1.439-2.534
											C18.987,350.005,19.458,350.555,20.24,351.007z"/>
										<path fill="#2842A2" d="M241.722,428.979v-1.867c0-0.177-0.107-0.258-0.24-0.181l-6.581,3.8
											c-0.133,0.075-0.24,0.282-0.24,0.459v1.865c0,0.179,0.107,0.258,0.24,0.183l6.581-3.8
											C241.615,429.36,241.722,429.155,241.722,428.979z"/>
										<path fill="#2842A2" d="M231.882,434.659v-1.864c0-0.178-0.109-0.259-0.24-0.182l-6.583,3.8
											c-0.133,0.076-0.24,0.28-0.24,0.459v1.866c0,0.176,0.107,0.258,0.24,0.18l6.583-3.798
											C231.772,435.042,231.882,434.838,231.882,434.659z"/>
										<path fill="#ADB1F2" d="M271.76,386.376l-141.402-81.64c-0.943-0.545-2.105-0.545-3.047,0.002L76.958,333.87
											c-0.723,0.419-0.722,1.462,0,1.881l141.337,81.6c0.941,0.544,2.102,0.544,3.043,0l50.421-29.096
											C272.482,387.837,272.482,386.792,271.76,386.376z"/>
										<path fill="#9198DB" d="M271.76,388.255l-0.506,0.293l-140.896-81.347c-0.943-0.544-2.105-0.542-3.047,0.002
											l-49.847,28.838l-0.505-0.29c-0.723-0.419-0.724-1.462,0-1.881l50.353-29.132c0.942-0.547,2.104-0.547,3.047-0.002
											l141.402,81.64C272.482,386.792,272.482,387.837,271.76,388.255z"/>
										<g>
											<polygon fill="#24126A" points="135.34,318.944 255.029,388.048 260.199,384.727 140.824,315.804 											"/>
											<polygon fill="#24126A" points="127.567,329.92 236.234,392.657 239.958,388.501 133.023,326.763 											"/>
											<polygon fill="#24126A" points="101.401,324.882 237.046,403.195 242.507,400.041 106.863,321.728 											"/>
											<polygon fill="#24126A" points="92.681,329.916 228.324,408.23 233.787,405.076 98.142,326.763 											"/>
											<polygon fill="#24126A" points="83.96,334.951 219.604,413.267 225.065,410.111 89.421,331.799 											"/>
											<polygon fill="#24126A" points="253.759,387.315 259.222,390.469 264.682,387.315 259.222,384.163 											"/>
											<polygon fill="#24126A" points="234.496,391.654 245.832,398.198 251.292,395.046 239.958,388.501 											"/>
										</g>
										
											<linearGradient id="SVGID_28_" gradientUnits="userSpaceOnUse" x1="238.8662" y1="386.041" x2="310.6982" y2="386.041" gradientTransform="matrix(-1 0 0 1 396.3662 0)">
											<stop  offset="0" style="stop-color:#C0BFF6"/>
											<stop  offset="0.2938" style="stop-color:#C5C4F7"/>
											<stop  offset="0.6399" style="stop-color:#D3D2F9"/>
											<stop  offset="1" style="stop-color:#E9E9FD"/>
										</linearGradient>
										<path fill="url(#SVGID_28_)" d="M124.913,406.131l-38.127-22.013c-1.491-0.859-1.491-2.256-0.001-3.116l26.073-15.052
											c1.49-0.86,3.905-0.86,5.397,0l38.126,22.012c1.492,0.86,1.492,2.255,0,3.117l-26.071,15.052
											C128.818,406.992,126.403,406.992,124.913,406.131z"/>
										<path fill="#9198DB" d="M156.381,389.237l-38.126-22.013c-1.492-0.859-3.907-0.859-5.397,0l-26.073,15.054
											c-0.46,0.266-0.76,0.583-0.937,0.919c-0.394-0.751-0.094-1.599,0.937-2.195l26.073-15.052c1.49-0.86,3.905-0.86,5.397,0
											l38.126,22.012c1.031,0.596,1.331,1.444,0.938,2.195C157.142,389.822,156.841,389.502,156.381,389.237z"/>
									</g>
								</g>
								<g opacity="0.11">
									<defs>
										<polygon id="SVGID_9_" opacity="0.11" points="151.242,163.712 316.947,259.383 296.398,380.523 130.805,284.919 
																					"/>
									</defs>
									<clipPath id="SVGID_29_">
										<use xlink:href="#SVGID_9_"  overflow="visible"/>
									</clipPath>
									<g clip-path="url(#SVGID_29_)">
										
											<linearGradient id="SVGID_30_" gradientUnits="userSpaceOnUse" x1="84.1313" y1="307.9111" x2="364.7524" y2="307.9111" gradientTransform="matrix(-1 0 0 1 396.3662 0)">
											<stop  offset="0" style="stop-color:#C0BFF6"/>
											<stop  offset="0.2938" style="stop-color:#C5C4F7"/>
											<stop  offset="0.6399" style="stop-color:#D3D2F9"/>
											<stop  offset="1" style="stop-color:#E9E9FD"/>
										</linearGradient>
										<path fill="url(#SVGID_30_)" d="M127.454,289.789l170.159,98.24c1.863,1.075,4.68,1.192,6.292,0.261l101.54-58.623
											c1.613-0.932,1.41-2.559-0.45-3.634l-170.159-98.239c-1.863-1.077-4.682-1.192-6.294-0.262L127,286.156
											C125.388,287.087,125.59,288.714,127.454,289.789z"/>
										
											<linearGradient id="SVGID_31_" gradientUnits="userSpaceOnUse" x1="65.6606" y1="287.3115" x2="137.4927" y2="287.3115" gradientTransform="matrix(-1 0 0 1 396.3662 0)">
											<stop  offset="0" style="stop-color:#C0BFF6"/>
											<stop  offset="0.2938" style="stop-color:#C5C4F7"/>
											<stop  offset="0.6399" style="stop-color:#D3D2F9"/>
											<stop  offset="1" style="stop-color:#E9E9FD"/>
										</linearGradient>
										<path fill="url(#SVGID_31_)" d="M298.118,307.402l-38.127-22.013c-1.49-0.86-1.49-2.255,0-3.114l26.073-15.054
											c1.49-0.861,3.907-0.861,5.397,0l38.125,22.013c1.492,0.859,1.492,2.255,0.002,3.115l-26.072,15.053
											C302.025,308.262,299.608,308.262,298.118,307.402z"/>
										<path fill="#9198DB" d="M329.586,290.509l-38.125-22.014c-1.49-0.859-3.907-0.859-5.397,0l-26.073,15.055
											c-0.459,0.265-0.759,0.584-0.936,0.92c-0.395-0.753-0.093-1.601,0.936-2.194l26.073-15.054
											c1.49-0.861,3.907-0.861,5.397,0l38.125,22.013c1.031,0.595,1.332,1.442,0.938,2.193
											C330.347,291.095,330.047,290.774,329.586,290.509z"/>
										<g>
											<path fill="#ADB1F2" d="M346.347,341.804l-141.402-81.639c-0.941-0.545-2.104-0.545-3.045,0.002l-50.354,29.132
												c-0.723,0.419-0.723,1.462,0.002,1.879l141.335,81.601c0.941,0.544,2.102,0.544,3.045,0l50.419-29.094
												C347.072,343.266,347.072,342.221,346.347,341.804z"/>
											<path fill="#9198DB" d="M346.347,343.685l-0.506,0.29L204.945,262.63c-0.941-0.545-2.104-0.545-3.045,0.002
												l-49.848,28.84l-0.504-0.294c-0.725-0.417-0.725-1.46-0.002-1.879l50.354-29.132c0.941-0.547,2.104-0.547,3.045-0.002
												l141.402,81.639C347.072,342.221,347.072,343.266,346.347,343.685z"/>
											<g>
												<polygon fill="#24126A" points="164.723,287.312 287.909,358.433 283.03,361.25 159.845,290.129 												"/>
												<polygon fill="#24126A" points="177.704,279.817 294.79,347.417 289.909,350.235 172.824,282.636 												"/>
												<polygon fill="#24126A" points="303.534,352.464 314.468,358.778 309.588,361.595 298.653,355.283 												"/>
												<polygon fill="#24126A" points="293.874,361.875 301.489,366.273 296.609,369.09 288.993,364.694 												"/>
												<polygon fill="#24126A" points="185.836,275.122 322.601,354.083 317.722,356.901 180.956,277.94 												"/>
												<polygon fill="#24126A" points="193.968,270.429 330.732,349.388 325.854,352.206 189.09,273.245 												"/>
												<polygon fill="#24126A" points="202.103,265.732 338.867,344.693 333.986,347.511 197.222,268.549 												"/>
											</g>
										</g>
									</g>
								</g>
							</g>
						</g>
					</g>
					<g>
						<polygon fill="#42E8E0" points="188.343,208.613 201.749,216.362 202.143,214.034 188.736,206.285 						"/>
						<polygon fill="#42E8E0" points="203.904,217.6 211.21,221.823 211.604,219.495 204.298,215.271 						"/>
						<polygon fill="#42E8E0" points="222.576,228.381 227.861,231.437 228.255,229.109 222.969,226.053 						"/>
						<polygon fill="#42E8E0" points="218.72,226.153 220.528,227.198 220.921,224.87 219.114,223.825 						"/>
						<polygon fill="#42E8E0" points="213.393,223.074 216.672,224.969 217.065,222.643 213.786,220.746 						"/>
						<polygon fill="#42E8E0" points="198.95,226.419 204.236,229.474 204.629,227.146 199.344,224.091 						"/>
						<polygon fill="#42E8E0" points="186.547,219.25 196.902,225.235 197.295,222.907 186.941,216.922 						"/>
						<g>
							<polygon fill="#42E8E0" points="201.394,256.979 211.748,262.963 212.142,260.636 201.787,254.65 							"/>
							<polygon fill="#42E8E0" points="196.066,253.899 199.346,255.795 199.739,253.467 196.459,251.571 							"/>
						</g>
						<polygon fill="#42E8E0" points="203.121,246.328 213.476,252.312 213.87,249.984 203.515,244 						"/>
						<polygon fill="#42E8E0" points="197.794,243.25 201.074,245.145 201.467,242.818 198.188,240.921 						"/>
						<polygon fill="#42E8E0" points="193.75,302.938 174.242,291.664 173.849,293.992 193.356,305.267 						"/>
						<polygon fill="#42E8E0" points="200.625,306.911 195.798,304.122 195.404,306.45 200.231,309.24 						"/>
						<polygon fill="#42E8E0" points="234.905,309.175 215.397,297.899 215.004,300.228 234.512,311.502 						"/>
						<polygon fill="#42E8E0" points="241.78,313.146 236.953,310.357 236.56,312.686 241.387,315.475 						"/>
						<polygon fill="#42E8E0" points="180.425,289.401 175.14,286.347 174.747,288.675 180.032,291.729 						"/>
						<polygon fill="#42E8E0" points="212.581,296.299 207.295,293.243 206.901,295.571 212.187,298.626 						"/>
						<polygon fill="#42E8E0" points="192.828,296.571 182.473,290.585 182.08,292.914 192.435,298.896 						"/>
						<polygon fill="#42E8E0" points="198.156,299.649 194.876,297.752 194.483,300.081 197.763,301.977 						"/>
						<polygon fill="#42E8E0" points="210.656,306.862 200.299,300.875 199.908,303.203 210.262,309.189 						"/>
						<polygon fill="#42E8E0" points="215.983,309.94 212.704,308.045 212.311,310.374 215.59,312.269 						"/>
						<polygon fill="#42E8E0" points="211.683,301.618 206.397,298.562 206.004,300.891 211.29,303.945 						"/>
						<polygon fill="#42E8E0" points="224.085,308.788 213.73,302.802 213.337,305.13 223.692,311.115 						"/>
						<polygon fill="#42E8E0" points="229.413,311.868 226.133,309.971 225.74,312.298 229.021,314.195 						"/>
						<polygon fill="#42E8E0" points="186.851,287.278 176.038,281.029 175.645,283.357 186.458,289.606 						"/>
						<polygon fill="#42E8E0" points="196.719,292.981 188.899,288.462 188.506,290.79 196.326,295.311 						"/>
						<polygon fill="#42E8E0" points="204.053,297.22 198.768,294.165 198.374,296.493 203.66,299.548 						"/>
						<polygon fill="#42E8E0" points="255.311,320.945 244.497,314.696 244.104,317.021 254.917,323.272 						"/>
						<polygon fill="#42E8E0" points="265.179,326.647 257.358,322.129 256.965,324.457 264.786,328.977 						"/>
						<polygon fill="#42E8E0" points="272.513,330.887 267.227,327.832 266.833,330.159 272.119,333.215 						"/>
						<polygon fill="#42E8E0" points="251.088,250.68 261.902,256.929 262.295,254.601 251.481,248.352 						"/>
						<polygon fill="#42E8E0" points="241.22,244.976 249.04,249.496 249.434,247.168 241.613,242.647 						"/>
						<polygon fill="#42E8E0" points="233.886,240.737 239.172,243.792 239.565,241.464 234.279,238.409 						"/>
						<polygon fill="#42E8E0" points="247.499,242.747 258.312,248.995 258.705,246.67 247.892,240.419 						"/>
						<polygon fill="#42E8E0" points="237.63,237.044 245.451,241.563 245.844,239.235 238.023,234.716 						"/>
						<polygon fill="#42E8E0" points="230.297,232.805 235.583,235.86 235.976,233.532 230.69,230.477 						"/>
						<polygon fill="#42E8E0" points="203.834,252.581 207.486,254.692 207.879,252.364 204.228,250.253 						"/>
						<polygon fill="#42E8E0" points="196.959,248.608 201.785,251.396 202.178,249.069 197.352,246.28 						"/>
						<polygon fill="#42E8E0" points="187.819,281.993 177.005,275.744 176.612,278.069 187.425,284.32 						"/>
						<polygon fill="#42E8E0" points="197.689,287.695 189.869,283.176 189.476,285.505 197.295,290.025 						"/>
						<polygon fill="#42E8E0" points="205.021,291.934 199.737,288.88 199.344,291.207 204.629,294.263 						"/>
						<polygon fill="#42E8E0" points="181.556,272.535 177.903,270.425 177.512,272.752 181.162,274.864 						"/>
						<polygon fill="#42E8E0" points="188.431,276.51 183.604,273.72 183.212,276.047 188.037,278.839 						"/>
						<polygon fill="#42E8E0" points="198.257,282.188 190.479,277.694 190.087,280.022 197.863,284.515 						"/>
						<polygon fill="#42E8E0" points="208.803,237.92 212.455,240.03 212.849,237.702 209.196,235.592 						"/>
						<polygon fill="#42E8E0" points="201.928,233.945 206.755,236.734 207.148,234.406 202.321,231.617 						"/>
						<polygon fill="#42E8E0" points="192.104,228.267 199.88,232.761 200.273,230.433 192.497,225.938 						"/>
						<polygon fill="#42E8E0" points="214.366,246.553 222.143,251.045 222.536,248.72 214.76,244.225 						"/>
						<polygon fill="#42E8E0" points="201.646,239.619 212.129,245.677 212.523,243.349 202.039,237.291 						"/>
						<polygon fill="#42E8E0" points="196.318,236.538 199.598,238.435 199.991,236.106 196.712,234.211 						"/>
						<polygon fill="#42E8E0" points="191.206,233.584 194.485,235.479 194.878,233.151 191.597,231.256 						"/>
						<g>
							<polygon fill="#42E8E0" points="191.906,263.631 202.264,269.618 202.655,267.289 192.3,261.303 							"/>
							<polygon fill="#42E8E0" points="186.579,260.552 189.858,262.447 190.252,260.119 186.973,258.225 							"/>
							<polygon fill="#42E8E0" points="192.62,269.884 196.272,271.995 196.666,269.667 193.013,267.556 							"/>
							<polygon fill="#42E8E0" points="205.515,265.623 209.166,267.735 209.559,265.406 205.909,263.295 							"/>
							<polygon fill="#42E8E0" points="210.721,268.628 219.485,273.691 219.878,271.364 211.115,266.301 							"/>
							<polygon fill="#42E8E0" points="221.04,274.586 226.255,277.599 226.646,275.271 221.434,272.257 							"/>
							<polygon fill="#42E8E0" points="185.745,265.911 190.572,268.7 190.965,266.372 186.139,263.583 							"/>
							<g>
								<polygon fill="#42E8E0" points="185.29,271.374 188.941,273.485 189.334,271.157 185.684,269.046 								"/>
								<polygon fill="#42E8E0" points="178.416,267.401 183.242,270.189 183.633,267.862 178.807,265.073 								"/>
							</g>
							<polygon fill="#42E8E0" points="200.216,262.563 203.495,264.459 203.889,262.134 200.607,260.236 							"/>
							<polygon fill="#42E8E0" points="195.101,259.608 198.382,261.506 198.775,259.178 195.494,257.28 							"/>
						</g>
						<polygon fill="#42E8E0" points="220.295,232.883 231.483,239.351 231.876,237.022 220.689,230.555 						"/>
						<polygon fill="#42E8E0" points="207.764,225.641 218.246,231.699 218.639,229.373 208.157,223.312 						"/>
						<polygon fill="#42E8E0" points="202.437,222.562 205.715,224.457 206.109,222.129 202.83,220.233 						"/>
						<polygon fill="#42E8E0" points="197.322,219.606 200.603,221.503 200.996,219.175 197.715,217.278 						"/>
						<polygon fill="#42E8E0" points="194.527,217.991 187.449,213.901 187.843,211.573 194.92,215.663 						"/>
					</g>
				</g>
			</g>
			<polygon fill="#24126A" points="123.511,312.116 128.971,315.268 134.434,312.116 128.973,308.964 			"/>
			<polygon fill="#24126A" points="110.123,319.847 121.457,326.392 126.919,323.237 115.583,316.694 			"/>
		</g>
	</g>
</g>
</svg>
